<svg xmlns="http://www.w3.org/2000/svg" viewBox="0 0 680 300" width="680" height="300" font-family="'Malgun Gothic', Arial, sans-serif">
  <rect width="680" height="300" fill="#fafafa" rx="10" stroke="#ddd" stroke-width="1"/>

  <!-- 중앙 머신러닝 타이틀 -->
  <rect x="240" y="110" width="200" height="60" fill="#fff9c4" stroke="#f9a825" stroke-width="2" rx="8"/>
  <text x="340" y="135" text-anchor="middle" font-size="14" font-weight="bold" fill="#e65100">머신러닝</text>
  <text x="340" y="155" text-anchor="middle" font-size="12" fill="#666">(Machine Learning)</text>

  <!-- 지도학습 박스 (좌상) -->
  <rect x="30" y="20" width="180" height="80" fill="#e3f2fd" stroke="#1976d2" stroke-width="2" rx="8"/>
  <text x="120" y="45" text-anchor="middle" font-size="14" font-weight="bold" fill="#0d47a1">지도학습</text>
  <text x="120" y="63" text-anchor="middle" font-size="11" fill="#333">- 정답지로 학습</text>
  <text x="120" y="79" text-anchor="middle" font-size="11" fill="#333">- 예측 모델 등에 사용</text>

  <!-- 준지도 학습 박스 (우상) -->
  <rect x="470" y="20" width="180" height="90" fill="#f3e5f5" stroke="#7b1fa2" stroke-width="2" rx="8"/>
  <text x="560" y="45" text-anchor="middle" font-size="14" font-weight="bold" fill="#4a148c">준지도 학습</text>
  <text x="560" y="63" text-anchor="middle" font-size="11" fill="#333">- 레이블이 없는 데이터와</text>
  <text x="560" y="79" text-anchor="middle" font-size="11" fill="#333">레이블링된 데이터로 학습</text>

  <!-- ㉠ 박스 (좌하) -->
  <rect x="30" y="190" width="180" height="90" fill="#e8f5e9" stroke="#388e3c" stroke-width="2" rx="8"/>
  <text x="120" y="213" text-anchor="middle" font-size="15" font-weight="bold" fill="#1b5e20">( ㉠ )</text>
  <text x="120" y="233" text-anchor="middle" font-size="11" fill="#333">- 정답 없이 학습지로 학습</text>
  <text x="120" y="250" text-anchor="middle" font-size="11" fill="#333">- 군집화 등에 사용</text>

  <!-- ㉡ 박스 (우하) -->
  <rect x="470" y="190" width="180" height="90" fill="#fff3e0" stroke="#e65100" stroke-width="2" rx="8"/>
  <text x="560" y="213" text-anchor="middle" font-size="15" font-weight="bold" fill="#bf360c">( ㉡ )</text>
  <text x="560" y="233" text-anchor="middle" font-size="11" fill="#333">- 시뮬레이션 반복 학습</text>
  <text x="560" y="250" text-anchor="middle" font-size="11" fill="#333">- 성능 강화 등에 사용</text>

  <!-- 연결선 -->
  <!-- 지도학습 → 머신러닝 -->
  <line x1="210" y1="60" x2="240" y2="130" stroke="#1976d2" stroke-width="1.5" stroke-dasharray="5,3"/>
  <!-- 준지도 → 머신러닝 -->
  <line x1="470" y1="65" x2="440" y2="130" stroke="#7b1fa2" stroke-width="1.5" stroke-dasharray="5,3"/>
  <!-- ㉠ → 머신러닝 -->
  <line x1="210" y1="235" x2="240" y2="155" stroke="#388e3c" stroke-width="1.5" stroke-dasharray="5,3"/>
  <!-- ㉡ → 머신러닝 -->
  <line x1="470" y1="235" x2="440" y2="155" stroke="#e65100" stroke-width="1.5" stroke-dasharray="5,3"/>
</svg>
