<svg xmlns="http://www.w3.org/2000/svg" viewBox="0 0 32 32"><path fill="#E76F00" d="M12.63 24.2s-1.14.66.81.89c2.36.27 3.57.23 6.17-.27 0 0 .69.43 1.64.8-5.83 2.5-13.2-.14-8.62-1.42zm-.71-3.26s-1.28.95.67 1.15c2.53.26 4.52.28 7.97-.38 0 0 .48.48 1.23.75-7.05 2.06-14.9.16-9.87-1.52z"/><path fill="#E76F00" d="M17.81 14.78c1.44 1.66-.38 3.15-.38 3.15s3.66-1.89 1.98-4.26c-1.57-2.21-2.77-3.31 3.74-7.1 0 0-10.22 2.55-5.34 8.21z"/><path fill="#E76F00" d="M24.75 26.48s.84.7-.93 1.24c-3.37 1.03-14.02 1.34-16.98.04-1.06-.47.94-1.12 1.57-1.25.66-.14 1.04-.12 1.04-.12-1.19-.84-7.72 1.65-3.32 2.37 12 1.96 21.88-.88 18.62-2.28zM13.24 17.5s-5.47 1.3-1.94 1.77c1.49.2 4.47.15 7.24-.08 2.27-.18 4.54-.58 4.54-.58s-.8.34-1.38.74c-5.57 1.46-16.33.78-13.23-.72 2.62-1.26 4.77-1.13 4.77-1.13z"/><path fill="#E76F00" d="M22.13 22.18c5.66-2.94 3.04-5.77 1.22-5.4-.45.09-.65.17-.65.17s.17-.26.49-.38c3.63-1.28 6.42 3.76-1.17 5.76 0 0 .09-.08.11-.15z"/><path fill="#E76F00" d="M19.1 2s3.13 3.13-2.97 7.94c-4.89 3.86-1.11 6.06 0 8.57-2.85-2.57-4.94-4.83-3.54-6.94C14.67 8.67 20.53 7.26 19.1 2z"/></svg>
