<svg xmlns="http://www.w3.org/2000/svg" viewBox="0 0 32 32"><defs><linearGradient id="a" x1="12.96" y1="2" x2="19.04" y2="30" gradientUnits="userSpaceOnUse"><stop offset="0" stop-color="#387EB8"/><stop offset="1" stop-color="#366994"/></linearGradient><linearGradient id="b" x1="12.96" y1="2" x2="19.04" y2="30" gradientUnits="userSpaceOnUse"><stop offset="0" stop-color="#FFE052"/><stop offset="1" stop-color="#FFC331"/></linearGradient></defs><path fill="url(#a)" d="M15.89 2C9.95 2 10.58 4.68 10.58 4.68l.01 2.78h5.42v.83H7.4S4 7.86 4 13.97s2.97 5.89 2.97 5.89h1.77V17c0-1.78 1.53-3.35 3.35-3.35h5.74c1.58 0 2.85-1.3 2.85-2.88V5.55C20.68 3.28 18.34 2 15.89 2zm-3.19 2.06a1.1 1.1 0 1 1 0 2.2 1.1 1.1 0 0 1 0-2.2z"/><path fill="url(#b)" d="M16.11 30c5.94 0 5.31-2.68 5.31-2.68l-.01-2.78h-5.42v-.83h8.61s3.4.43 3.4-5.68-2.97-5.89-2.97-5.89h-1.77V15c0 1.78-1.53 3.35-3.35 3.35h-5.74c-1.58 0-2.85 1.3-2.85 2.88v5.22c0 2.27 2.34 3.55 4.79 3.55zm3.19-2.06a1.1 1.1 0 1 1 0-2.2 1.1 1.1 0 0 1 0 2.2z"/></svg>
